# xmcd
#
# Track frame offsets:
#	182
#	17117
#	33000
#	45385
#	73865
#	90265
#	116767
#	147525
#	172055
#	191415
#	208990
#	236340
#	256320
#	276550
#	292160
#
# Disc length: 4157 seconds
#
# Revision: 2
# Processed by: cddbd v1.5.2PL0 Copyright (c) Steve Scherf et al.
# Submitted via: EasyCDDAExtractor 11.1.0.1
#
DISCID=e4103b0f
DTITLE=Various Artist - Confessin' The Blues
DYEAR=1995
DGENRE=Blues
TTITLE0=Stan Webb's Chicken Shack - Everyday I Have The Blues
TTITLE1=Dave Kelly - Let's Talk It Over
TTITLE2=Chris Barber - Get Yourself To Jackson Square
TTITLE3=Zoot Money And Colin Hodgkinson - (i) Geneva (ii) My Good Luck Soul
TTITLE4=Paul Jones - Work Song
TTITLE5=Richie Milton And The Lowdown - Wasn't That Love
TTITLE6=Paul Lamb And The King Snakes - The Woman I'm In Love With
TTITLE7=The Blues Band - Fat City
TTITLE8=Gets/z Loose - Standing By The River (On The Suicide)
TTITLE9=Duffy Power And Dick Heckstall-Smith - Everyday Since You've Been Gone
TTITLE10=Norman Beaker And The Indigo Allstars - Modern Days, Lonely Night
TTITLE11=The Frank White Band - Dog It
TTITLE12=John Pearson - Travellin' Man
TTITLE13=Gordon Smith - Keep Your Lamp Trimmed And Burning
TTITLE14=The Hideaway Blues Band - Drivin' All Night
EXTD=
EXTT0=
EXTT1=
EXTT2=
EXTT3=
EXTT4=
EXTT5=
EXTT6=
EXTT7=
EXTT8=
EXTT9=
EXTT10=
EXTT11=
EXTT12=
EXTT13=
EXTT14=
PLAYORDER=
